<svg version="1.2" xmlns="http://www.w3.org/2000/svg" viewBox="0 0 537 176" width="122" height="40"> <style>.a{fill:#1e90b7}</style><path fill-rule="evenodd" class="a" d="m159.4 114.3c0.4 10.7-8.3 20.3-19.1 21.2q-2.5 0.1-4.7 0.1c0.1 3.1 0.1 6-1 9-2.1 6.4-7.8 12-14.4 14.1q-2.9 0.9-5.8 0.9c-3.5 0-6.8-1-9.7-3-7.2-4.2-10.9-11-10.8-20v-7.3q-0.1-9-0.1-18 0-2.4 0-4.7c0-2.6 0-5.3 0-8 0-0.6 0-2.5 1.4-3.8 0.6-0.6 1.8-1.4 3.7-1.2 1 0 2 0.1 3.1 0.1h0.3q0.7 0 1.3 0c4.1 0 8.3-0.1 12.1-0.2 7.9-0.1 15.9-0.2 23.9 0.1 5.4 0.3 10.7 2.7 14.5 6.9 3.5 3.9 5.5 8.9 5.3 13.8zm-30.8 20.2c-5.7-1.9-16.5-7.8-27.8-25.7q0 1.2 0 2.5 0 8.2 0.1 16.5v8.9c-0.1 6.2 2.9 12.3 8.9 14.9 7.2 3 15.8-2.1 18.2-9.2 0.8-2.3 0.7-4.9 0.6-7.9zm20.2-10.6c4.6-5.1 4.8-13.6 0.1-18.7-2.5-2.8-6-4.4-9.6-4.6-7.8-0.3-15.8-0.2-23.5 0-3.7 0-8 0.1-12.1 0.1 0.3 0 1.3 2.1 1.4 2.4 2.9 4.9 6.2 9.5 10 13.8 3.9 4.2 8.5 8.2 13.9 10.6 1.6 0.7 3.6 1.1 5.6 1.3 5.2 0.3 10.9-1.3 14.2-4.9z"/><path fill-rule="evenodd" class="a" d="m90.7 89.8c-0.8 0-1.6-0.1-2.3-0.4q0.6 1.2 0.5 2.8c-0.5 5.9-0.4 12.1-0.2 18.2 0.1 2.8 0.1 5.8 0.1 8.8 0 0.3 0.1 0.9 0.1 1.4 0.2 1.1 0.3 2.3 0.1 3.6q-0.8 5-7.5 4.8-0.4 0-0.7 0-1.6 0-3-0.1h-1.3c-11.1 0.1-20.5 0.1-30.1 0.1-1.2 0-2.4 0-3.6 0.1-1.4 0-2.7 0-4 0-2.9 0-5.3-0.1-7.4-0.5-8.7-1.7-15.5-8.1-17.1-16.5-1.2-6.4 0-12.2 3.8-17.2 2.6-4.4 6.3-8.1 9.8-11.7 1.3-1.3 2.6-2.5 3.7-3.8 4.2-4.4 8.7-9.4 14.4-15.6 2.4-2.6 4.8-5.2 7.2-7.7 5.1-5.5 10.4-11.1 15.2-16.8 4-4.7 8.2-9.3 12.3-13.7 3.7-3.8 7.3-7.8 10.8-11.7 4.5-5.3 11.4-7.7 18.4-6.4 7.4 1.3 13.4 6.1 16 12.9 1.3 3.4 1.8 6.7 1.8 10.1-0.1 4.3-0.1 8.6-0.1 12.8v5.5c0 11.5 0.1 23.3 0.1 35.2 0 0.8 0 2.7-1.3 4.2-1.6 1.7-3.8 1.7-4.6 1.7l-4.6-0.1c-8.7-0.1-17.7-0.1-26.5 0zm-4.8-4.9c0.1-3.5 0.1-8.1 0.1-12.8-0.9 0.8-1.7 1.7-2.4 2.6-0.8 0.8-1.4 1.6-2.1 2.2-2.3 2.4-4.9 4.9-7.6 7.5q-0.5 0.6-1.1 1.2-0.7 0.7-1.3 1.4 0 0 0 0c3.4 0.2 6.9 0.1 10.3 0h2.1q0 0 0.1 0c0.5 0 1.5 0 2.5 0.5-0.6-1.1-0.6-2.1-0.6-2.6zm-39.5 37.1c11.8 0 23.6-0.5 35.3 0q0.2 0 0.4 0-0.1-0.3-0.1-0.7c-0.1-0.6-0.2-1.4-0.2-2.1 0-2.9 0-5.8-0.1-8.6-0.1-5.5-0.3-11.1 0-16.6-3.4 0.1-6.9 0.2-10.5 0-4.8-0.1-6.7-2.1-7.5-3.6-1.9-4.1 2.6-8.2 5.2-10.8 0 0 0.1-0.2 0.1-0.2q2.3-2.2 4.5-4.4c-2.3 0.3-4.8 0.5-7.4 0.5-6.5 0-12.5-1.2-18.1-3.5-4.3 4.6-7.9 8.6-11.2 12.2-1.3 1.3-2.6 2.7-3.9 4-3.3 3.3-6.7 6.7-8.8 10.4l-0.2 0.3q-4 5.2-2.7 11.8c1.1 5.6 5.6 9.9 11.5 11 4.5 0.8 9.2 0.3 13.7 0.3zm43.3-57.3c2.9 1.4 3.7 5.2 3.5 8.4-0.2 3.2-0.1 6.4-0.2 9.6q13.8 0.1 27.6 0.2 0.1-23.1 0.2-46.1c0-5.2 0-10.5-2.3-15.2-2.4-5.1-7.4-7.6-12.9-7.5-5.6 0.1-10.3 5.7-13.7 9.5q-19.4 21.6-38.8 43.2c9 3.1 19.2 2.8 28-0.8 1.2-0.4 2.4-0.9 3.6-1.3 1.7-0.5 3.4-0.7 5 0z"/><path class="a" d="m173.7 86.6c20.5 5.7 26.4-2.3 10.4-10.6-30.8-16.1-9.8-43.1 17.2-29.8 4.6 2.3 1 9.9-3.4 7.6-13.9-7.4-30.2 3.8-12.1 13.2 28.7 15.1 15.3 39.3-15.4 27.2-4.9-1.9-2.6-9.3 3.3-7.6z"/><path fill-rule="evenodd" class="a" d="m185.7 100.3c-4.7 0-10.2-1.1-16.4-3.5-3.5-1.3-5.2-5-4-8.5 1.1-3.2 4.6-5.8 9.2-4.4 10.6 2.9 15.4 1.6 16 0.8-0.1-0.4-1.3-2.9-7.7-6.2-17.2-9-18.9-20.9-15.1-28.3 4.7-9.3 19-14.3 34.9-6.6 2.2 1.1 3.6 3.2 3.7 5.6 0.1 2.7-1.3 5.4-3.5 6.8-1.9 1.3-4.2 1.3-6.2 0.3-5.7-3-11.3-2.4-14.2-0.6-0.7 0.4-1.8 1.3-1.8 2.5 0 0.7 0.6 3.2 6.5 6.3 15.8 8.3 19.5 19.4 16.2 26.7-2.3 5.1-8.4 9.1-17.6 9.1zm-13.7-11.2c-0.9 0-1.2 0.6-1.4 1-0.1 0.4-0.2 1.1 0.8 1.4 14.2 5.6 24.2 2.9 26.8-2.6 2.2-4.9-1.2-12.8-13.7-19.4-7.7-4-9.4-8.2-9.5-11-0.2-3 1.4-5.7 4.4-7.6 4.3-2.7 12.2-3.7 19.8 0.4 0.3 0.1 0.4 0.1 0.6 0 0.5-0.4 0.9-1.2 0.8-1.8 0-0.4-0.1-0.6-0.5-0.8-12.7-6.2-23.9-2.8-27.4 4-3.4 6.8 1.6 15 12.7 20.8 11.2 5.8 11.3 10.8 10.3 13.3-2 5-10.5 5.9-22.8 2.5q-0.5-0.2-0.9-0.2z"/><path class="a" d="m247.4 96.7c-32 0-32 0-32-10.9-0.6-25.5-0.3-20.1-0.3-30.1 0-13.3 0-13.3 32.3-13.3 2.3 0 3.8 2.7 3.7 4.9-0.2 1.8-1.5 3.2-3.7 3.2-24.4 0-24.4 0-24.4 3.9v12.4c7-0.4 19.5-0.8 22.6-0.1 2.8 0.5 2.1 6.4 0 6.5-6.5 0.7-16.9 0.8-22.8 0.7v12.2c0 2.6 0 2.6 24.6 2.6 1.6 0 2.9 1.2 3.5 3.1 1 2.3-0.8 4.9-3.5 4.9z"/><path fill-rule="evenodd" class="a" d="m247.4 99.5c-32.2 0-34.9 0-34.9-13.7-0.4-17.9-0.3-20.6-0.3-24.1 0.1-1.4 0.1-3 0.1-6 0-16.2 2.7-16.2 35.1-16.2 1.6 0 3.1 0.7 4.3 2 1.5 1.5 2.3 3.8 2.2 6-0.2 3.4-3 5.9-6.5 5.9-11.9 0-19.5 0-21.6 0.5q0 0.3 0 0.5v9.4c7.3-0.3 17.4-0.6 20.5 0.1 2.6 0.5 4.2 3.2 4 6.5-0.3 3.3-2.1 5.5-4.5 5.6-6 0.7-14.6 0.8-20.1 0.8v8.7c2.5 0.3 9.8 0.3 21.7 0.3 2.7 0 5 1.9 6.2 5 0.7 1.9 0.5 4.1-0.7 5.8-1.2 1.9-3.3 2.9-5.5 2.9zm0-54.3c-15.3 0-23.6 0-27.2 1.4-2 0.9-2.2 2-2.2 9.1 0 3-0.1 4.6-0.1 6.1-0.1 3.4-0.1 6.1 0.3 23.9 0 5.9 0.2 6.3 2.1 7 3.5 1.2 11.9 1.2 27.1 1.2 0.5 0 0.7-0.3 0.8-0.4 0.1-0.1 0.2-0.4 0.1-0.7-0.3-1-0.8-1.3-0.9-1.3-12.4 0-18.6 0-21.8-0.4-2.9-0.3-5.6-1.1-5.6-5v-15.1l2.9 0.1c5.2 0.1 15.1 0 21.7-0.6 0.1-0.4 0.1-0.8 0-1.2-2.6-0.3-10.9-0.2-21.5 0.3l-3 0.1v-15.3c0-2.5 0.5-5.4 5.5-6.2 3.2-0.5 9-0.5 21.8-0.5 0.8 0 0.8-0.4 0.8-0.6 0.1-0.9-0.6-1.9-0.8-1.9zm-2 25.2q-0.1 0-0.2 0 0.1 0 0.2 0zm-0.3-1q0 0 0 0 0 0 0 0z"/><path fill-rule="evenodd" class="a" d="m300 92.5c-0.7-5-2.3-11.3-4.5-17.4-6.9 0.4-14.7 0.5-22.4 0.4-1.8 6.6-3.1 13.2-3.5 17.5-0.3 2.9-1.7 3.5-3.4 3.5-1.8 0-3.6-2-4-4.2-1.9-12.6 9.7-49.7 22-49.7 9 0 21.2 32.1 23.8 48.9 0.8 5.2-7.2 6.9-8 1zm-6.9-24c-3.5-8.5-7.1-15.3-9.1-15.3-2.6 0-6 6.9-8.7 15.2 5.8 0 12.7 0 17.8 0.1z"/><path fill-rule="evenodd" class="a" d="m266.2 99.3c-3.2 0-6.2-2.9-6.7-6.5-1.7-10.9 5.3-36.3 14.7-47.4 3.3-3.7 6.6-5.6 10-5.6 12.2 0 24.3 36.4 26.6 51.3 0.3 2.5-0.5 4.9-2.5 6.4-1.9 1.6-4.7 2-6.9 1.1-2.3-0.9-3.8-3-4.2-5.8-0.6-4.3-1.9-9.6-3.6-14.8-5.5 0.3-11.6 0.4-18.4 0.4-1.5 6.1-2.5 11.4-2.8 14.9-0.4 3.9-2.7 6-6.2 6zm18-53.9c-1.6 0-3.6 1.3-5.7 3.7-8.2 9.6-14.9 33.3-13.5 42.8 0.2 1 1 1.7 1.2 1.8q0.3 0 0.4-0.1c0 0 0.1-0.3 0.2-0.9 0.4-5.5 2.4-13.6 3.5-17.9l0.6-2.1h2.2c8.4 0.1 15.9 0 22.2-0.5l2.2-0.1 0.7 2c2.2 6.2 3.9 12.7 4.6 18 0.1 0.5 0.2 1.1 0.7 1.2 0.4 0.2 0.9 0.1 1.3-0.2q0.5-0.4 0.4-1.1c-2.9-19.2-15.2-46.6-21-46.6zm13.1 26l-4.3-0.1c-5-0.1-11.8-0.1-17.7-0.1h-4l1.3-3.7c5-15.2 8.7-17.1 11.4-17.1 1.6 0 4.8 0 11.7 17zm-18.1-5.8c3.3 0 6.6 0 9.6 0-2.4-5.3-4.1-8-5-9.1-0.9 1-2.5 3.6-4.6 9.1z"/><path class="a" d="m326.4 86.6c20.5 5.7 26.4-2.3 10.4-10.6-30.7-16.1-9.8-43.1 17.3-29.8 4.6 2.3 0.9 9.9-3.5 7.6-13.9-7.4-30.2 3.8-12.1 13.2 28.7 15.1 15.3 39.3-15.4 27.2-4.8-1.9-2.5-9.3 3.3-7.6z"/><path fill-rule="evenodd" class="a" d="m338.4 100.3c-4.6 0-10.1-1.1-16.3-3.5-3.5-1.3-5.3-5-4.1-8.5 1.1-3.2 4.6-5.8 9.2-4.4 10.6 2.9 15.4 1.6 16 0.8 0-0.4-1.3-2.9-7.7-6.2-17.2-9-18.9-20.9-15.1-28.3 4.7-9.3 19.1-14.3 34.9-6.6 2.2 1.1 3.6 3.2 3.7 5.6 0.2 2.7-1.2 5.4-3.4 6.8-1.9 1.3-4.2 1.3-6.3 0.3-5.6-3-11.3-2.4-14.2-0.6-0.7 0.4-1.8 1.3-1.8 2.5 0.1 0.7 0.6 3.2 6.5 6.3 15.9 8.3 19.6 19.4 16.2 26.7-2.3 5.1-8.4 9.1-17.6 9.1zm-13.7-11.2c-0.8 0-1.2 0.6-1.3 1-0.2 0.4-0.2 1.1 0.7 1.4 14.2 5.6 24.3 2.9 26.8-2.6 2.2-4.9-1.1-12.8-13.7-19.4-7.6-4-9.4-8.2-9.5-11-0.1-3 1.5-5.7 4.4-7.6 4.4-2.7 12.2-3.7 19.8 0.4 0.4 0.1 0.5 0.1 0.6 0 0.5-0.4 0.9-1.2 0.9-1.8 0-0.4-0.2-0.6-0.6-0.8-12.7-6.2-23.9-2.8-27.4 4-3.4 6.8 1.6 15 12.7 20.8 11.3 5.8 11.3 10.8 10.3 13.3-2 5-10.5 5.9-22.7 2.5h-0.1q-0.5-0.2-0.9-0.2z"/><path fill-rule="evenodd" class="a" d="m389.4 42.4c26 0 33.9 54.3-0.6 54.3-31.4 0-30.7-54.3 0.6-54.3zm-0.3 8c-19.5 0-20.8 38.4 0.3 38.4 21.5 0 15-38.4-0.3-38.4z"/><path fill-rule="evenodd" class="a" d="m388.8 99.5c-17.9 0-26-15.3-26-29.6 0-7.8 2.3-15.1 6.5-20.6 4.9-6.4 11.9-9.8 20.1-9.8 15.6 0 25.3 16.9 25.3 32.4 0 12.8-6.8 27.6-25.9 27.6zm0.6-54.3c-6.4 0-11.8 2.6-15.6 7.5-3.4 4.5-5.4 10.8-5.4 17.2 0 11.6 6.4 24 20.4 24 6.7 0 11.9-2.2 15.4-6.6 3.1-3.8 4.8-9.3 4.8-15.4 0-12.8-7.5-26.7-19.6-26.7zm0 46.4c-5.8 0-10.6-2.4-13.9-7.1-2.8-3.8-4.3-9-4.3-14.6 0-11.1 6.1-22.3 17.9-22.3 10.1 0 16.9 12.7 16.9 24.6 0 5.3-1.3 9.8-3.8 13.2-2.9 4-7.3 6.2-12.8 6.2zm-0.3-38.4c-8.1 0-12.3 8.4-12.3 16.7 0 4.4 1.2 8.4 3.3 11.3 2.2 3.2 5.4 4.7 9.3 4.7 3.6 0 6.4-1.3 8.3-3.8 1.7-2.4 2.6-5.9 2.6-9.9 0-8.9-4.8-19-11.2-19z"/><path class="a" d="m423.6 93.4c-0.9-37.3-0.3-49.7 5.9-50.7 6.9-1.2 14.7 16.2 21.9 35.4-0.3-9.9-0.7-21.7-1-32.9-0.1-1.9 1.5-3.4 3.5-3.5 2.1 0 4.4 1.3 4.6 4 0.9 16.8 1.8 46.8-3.5 50.1-2.9 1.8-5.4-1.2-8.4-8.4-6.5-16-14-32.4-14.7-32.4-1.2 0-1.4 25.6-1 38 0 2.8-1.1 4.1-2.8 4.1-2.7 0-4.5-1.7-4.5-3.7z"/><path fill-rule="evenodd" class="a" d="m428.1 99.9c-4.2 0-7.3-2.8-7.3-6.5-1-39.2-0.6-52 8.2-53.5 6-1 11.7 5.5 19.1 22.4-0.2-5.6-0.4-11.4-0.5-17-0.1-1.6 0.6-3.3 1.8-4.5 1.1-1.2 2.7-1.9 4.3-2q0 0 0 0c3.5 0 7.2 2.4 7.6 6.6 2.6 48.1-2.5 51.4-4.7 52.8-2.1 1.2-3.8 1-4.9 0.7-2.8-0.9-5-3.9-7.7-10.4-3.8-9.3-7.5-17.9-10.2-23.7-0.3 8-0.3 20-0.1 28.1 0 5.2-2.9 7-5.6 7zm2.1-54.4q-0.1 0-0.3 0c-4.3 0.7-4.1 21.2-3.5 47.8v0.1c0 0.4 0.7 0.8 1.5 0.8 0.1-0.2 0.1-0.5 0.1-1.2 0-1.4-1-37.1 1.8-39.9l0.8-0.9h1.3c1.8 0 3.4 0 17.4 34.1 2.4 6 3.8 7 4.1 7.2q0 0 0.2-0.1 0.1-0.2 0.3-0.4l-5.2-14c-11.1-29.8-16.5-33.5-18.5-33.5zm23.7-1c-0.1 0-0.4 0.1-0.5 0.3-0.1 0.1-0.1 0.2-0.1 0.3 0.1 6.2 0.3 12.6 0.5 18.6 0.1 5 0.3 9.8 0.4 14.3l0.3 13.5c1.4-4.5 2.7-17.4 1.2-45.7-0.1-1.3-1.8-1.3-1.8-1.3z"/><path class="a" d="m477 86.6c20.5 5.7 26.4-2.3 10.4-10.6-30.8-16.1-9.8-43.1 17.2-29.8 4.6 2.3 1 9.9-3.4 7.6-14-7.4-30.2 3.8-12.1 13.2 28.7 15.1 15.3 39.3-15.4 27.2-4.9-1.9-2.6-9.3 3.3-7.6z"/><path fill-rule="evenodd" class="a" d="m489 100.3c-4.7 0-10.2-1.1-16.4-3.5-3.5-1.3-5.2-5-4-8.5 1.1-3.2 4.6-5.8 9.2-4.4 10.5 2.9 15.4 1.6 16 0.8-0.1-0.4-1.3-2.9-7.7-6.2-17.2-9-18.9-20.9-15.1-28.3 4.7-9.3 19-14.3 34.9-6.6 2.2 1.1 3.5 3.2 3.7 5.6 0.1 2.7-1.3 5.4-3.5 6.8-1.9 1.3-4.2 1.3-6.2 0.3-5.7-3-11.3-2.4-14.2-0.6-0.7 0.4-1.8 1.3-1.8 2.5 0 0.7 0.6 3.2 6.5 6.3 15.8 8.3 19.5 19.4 16.2 26.7-2.3 5.1-8.4 9.1-17.6 9.1zm-13.7-11.2c-0.9 0-1.2 0.6-1.4 1-0.1 0.4-0.2 1.1 0.8 1.4 14.2 5.6 24.2 2.9 26.8-2.6 2.2-4.9-1.2-12.8-13.7-19.4-7.7-4-9.4-8.2-9.5-11-0.2-3 1.4-5.7 4.4-7.6 4.3-2.7 12.2-3.7 19.8 0.4 0.3 0.1 0.4 0.1 0.6 0 0.5-0.4 0.9-1.2 0.8-1.8 0-0.4-0.1-0.6-0.5-0.8-12.7-6.2-23.9-2.8-27.4 4-3.4 6.8 1.6 15 12.7 20.8 11.2 5.8 11.3 10.8 10.3 13.3-2 5-10.5 5.9-22.8 2.5q-0.5-0.2-0.9-0.2z"/><path fill-rule="evenodd" class="a" d="m212.7 112q0 3.7-3 5.1-1.6 1-3.7 0.9h-6.9v9.2h-1.7v-21.3h8.7q3 0 4.7 1.4 1.9 1.6 1.9 4.7zm-1.6 0q0-4.5-5-4.5h-7v8.8h7q2.2 0 3.5-1.1 1.5-1.2 1.5-3.2z"/><path class="a" d="m218.8 127.2h-1.6v-15.2h1.6v1.8q0.8-0.9 2.2-1.6 1.4-0.6 3.4-0.5v1.6q-1.4-0.1-2.5 0.4-1 0.4-1.7 1.2-0.7 0.7-1.1 1.7-0.3 1-0.3 2.1z"/><path fill-rule="evenodd" class="a" d="m228.2 120.2q0.1 2.5 1.1 3.9 1.3 1.8 3.9 1.8 2.1 0 3.4-1.2 1.4-1.3 1.7-3.5h1.6q-0.4 3.2-2.2 4.8-1.8 1.6-4.4 1.6-3.5 0-5.3-2.5-1.5-2.1-1.5-5.6 0-3.1 1.7-5.4 2-2.6 5.1-2.6 3.3 0 5.1 2.5 0.8 1.1 1.2 2.7 0.4 1.5 0.4 3.5zm10.2-1.7q-0.1-2.1-1.3-3.6-1.4-1.7-3.7-1.7-2.4 0-3.8 1.8-0.6 0.7-0.9 1.6-0.4 0.9-0.5 1.9z"/><path class="a" d="m256.9 123.1q0 2.2-1.9 3.5-1.5 1-3.8 1-6.2 0-6.2-6.4h1.6q0 4.7 4.6 4.7 1.7 0 2.8-0.7 1.3-0.7 1.3-2.1 0-1.6-2.2-2.4-0.6-0.2-1.1-0.3-0.6-0.2-1.2-0.3-0.6-0.2-1.3-0.3-0.7-0.2-1.3-0.4-2.7-1-2.7-3.8 0-2 1.9-3.2h-0.1q1.5-0.9 3.6-0.9 5.6 0 5.6 5.7h-1.6q0-4-4-4-1.6 0-2.6 0.5-1.1 0.7-1.1 1.9 0 1.6 2.1 2.4 0.6 0.2 1.2 0.3 0.5 0.2 1.1 0.3 0.6 0.2 1.3 0.4 0.7 0.1 1.2 0.3 2.8 1 2.8 3.8z"/><path class="a" d="m275.1 121.3q-0.1 1.5-0.6 2.7-0.5 1.2-1.5 2-1.7 1.6-4.3 1.6-3.2 0-5.1-2.4-1.7-2.1-1.7-5.3 0-1.8 0.5-3.3 0.4-1.4 1.2-2.5 1-1.3 2.4-1.9 1.3-0.7 3.1-0.7 1.1 0 2.2 0.4 1 0.4 1.8 1.2 0.7 0.7 1.3 1.8 0.5 1.1 0.6 2.4h-1.6q-0.3-2-1.5-3-1.1-1.1-2.8-1.1-2.8 0-4.2 1.9-1.4 1.9-1.4 4.8 0 1.3 0.4 2.3 0.3 1.1 1 1.9 1.4 1.8 3.8 1.8 2 0 3.3-1.1 1.3-1.2 1.4-3.5z"/><path class="a" d="m280.3 106.5h1.7v7.1q0.8-0.9 1.9-1.4 1.1-0.5 2.7-0.5 1.2 0 2.2 0.3 1 0.4 1.8 1.1 0.7 0.7 1.1 1.8 0.5 1 0.5 2.4v9.9h-1.7v-9.8q0-1.1-0.3-1.9-0.3-0.7-0.9-1.2-0.5-0.5-1.2-0.8-0.7-0.2-1.5-0.2-1.1 0-2 0.4-0.9 0.5-1.4 1.2-0.6 0.7-0.9 1.7-0.3 1-0.3 2.1v8.5h-1.7z"/><path fill-rule="evenodd" class="a" d="m310.6 119.5q0 3.3-1.8 5.5-1.9 2.6-5.2 2.6-3.2 0-5.2-2.6-1.7-2.1-1.7-5.5 0-3.3 1.7-5.5 2-2.5 5.3-2.5 3.2 0 5.1 2.5 1.8 2.3 1.8 5.5zm-1.7 0q0-2.6-1.3-4.4-1.5-1.9-3.9-1.9-2.6 0-3.9 1.9-1.4 1.8-1.4 4.4 0 2.7 1.3 4.5 1.4 1.9 4 1.9 2.4 0 3.9-1.9 1.3-1.9 1.3-4.5z"/><path fill-rule="evenodd" class="a" d="m332.7 119.5q0 3.3-1.7 5.5-2 2.6-5.2 2.6-3.3 0-5.3-2.6-1.6-2.1-1.6-5.5 0-3.3 1.7-5.5 2-2.5 5.2-2.5 3.2 0 5.2 2.5 1.7 2.3 1.7 5.5zm-1.7 0q0-2.6-1.3-4.4-1.4-1.9-3.9-1.9-2.5 0-3.9 1.9-1.4 1.8-1.4 4.4 0 2.7 1.3 4.5 1.4 1.9 4 1.9 2.5 0 3.9-1.9 1.3-1.9 1.3-4.5z"/><path class="a" d="m339.6 123.9q0 1.7 1.4 1.7 0.2 0 0.7-0.1 0.4 0 1 0v1.6q-0.7 0-1.2 0.1-0.5 0-0.7 0-2.8 0-2.9-3.2v-17.7h1.7z"/><path fill-rule="evenodd" class="a" d="m372.3 127.2h-2.1l-2.2-2.7q-1 1.7-2.4 2.5-1.4 0.7-3.4 0.7-2.4 0-4.2-1.5v0.1q-2-1.7-2-4.1 0-2.3 2-4.2 0.5-0.5 1.2-1.1 0.8-0.6 1.9-1.3-0.3-0.3-0.5-0.6-0.2-0.4-0.4-0.7-0.2-0.1-0.3-0.3-0.2-0.2-0.3-0.4-1.2-1.7-1.2-3.1 0-0.9 0.4-1.7 0.3-0.8 1-1.4 0.6-0.6 1.4-0.8 0.9-0.3 1.8-0.3 1.9 0 3.2 1.1 1.3 1.2 1.3 3.1 0 1.9-1.6 3.5-0.2 0.3-0.8 0.8-0.6 0.5-1.6 1.2 0.5 0.7 1 1.3 0.6 0.7 1 1.3 0.5 0.6 1.1 1.3 0.5 0.6 1.1 1.4 0.2-0.7 0.3-1.8 0.1-1.1 0.1-2.5h1.7q-0.1 1.9-0.3 3.4-0.3 1.5-0.6 2.5zm-10.2-10.4q-1.1 0.7-1.8 1.3-0.7 0.5-1 0.8-1.6 1.5-1.6 3.3 0 1.7 1.4 2.8 1.3 1 3.1 1 1.6 0 2.8-0.7 1.1-0.7 2-2.3zm3.8-6.4q0-1.1-0.8-1.8-0.9-0.7-2.1-0.7-1.3 0-2.1 0.7-0.8 0.6-0.8 1.8 0 0.9 0.9 2.4 0.1 0.1 0.5 0.5 0.3 0.5 1 1.4 0.7-0.6 1.3-1 0.5-0.4 0.8-0.7 1.3-1.3 1.3-2.6z"/><path class="a" d="m402.8 127.2h-1.7v-10.3h-13v10.3h-1.7v-21.3h1.7v9.4h13v-9.4h1.7z"/><path fill-rule="evenodd" class="a" d="m422 119.5q0 3.3-1.8 5.5-1.9 2.6-5.2 2.6-3.2 0-5.2-2.6-1.7-2.1-1.7-5.5 0-3.3 1.7-5.5 2-2.5 5.3-2.5 3.2 0 5.1 2.5 1.8 2.3 1.8 5.5zm-1.7 0q0-2.6-1.3-4.4-1.5-1.9-3.9-1.9-2.6 0-4 1.9-1.4 1.8-1.4 4.4 0 2.7 1.4 4.5 1.4 1.9 4 1.9 2.4 0 3.9-1.9 1.3-1.9 1.3-4.5z"/><path class="a" d="m438.9 123.1q0 2.2-1.9 3.5-1.5 1-3.7 1-6.3 0-6.3-6.4h1.6q0 4.7 4.7 4.7 1.7 0 2.8-0.7 1.2-0.7 1.2-2.1 0-1.6-2.2-2.4h0.1q-0.6-0.2-1.2-0.3-0.6-0.2-1.2-0.3-0.6-0.2-1.3-0.3-0.6-0.2-1.2-0.4-2.8-1-2.8-3.8 0-2 1.9-3.2 1.4-0.9 3.5-0.9 5.6 0 5.6 5.7h-1.6q0-4-4-4-1.5 0-2.5 0.5-1.2 0.7-1.2 1.9 0 1.6 2.2 2.4h-0.1q0.6 0.2 1.2 0.3 0.6 0.2 1.2 0.3 0.5 0.2 1.2 0.4 0.7 0.1 1.3 0.3 2.7 1 2.7 3.8z"/><path class="a" d="m449.8 113.5h-3.2v13.7h-1.6v-13.7h-1.8v-1.7h1.8v-2.9l1.6-1.2v4.1h3.2z"/><path fill-rule="evenodd" class="a" d="m455.3 120.2q0.1 2.5 1.2 3.9 1.2 1.8 3.8 1.8 2.1 0 3.4-1.2 1.4-1.3 1.7-3.5h1.7q-0.4 3.2-2.3 4.8-1.7 1.6-4.4 1.6-3.5 0-5.2-2.5-1.6-2.1-1.6-5.6 0-3.1 1.7-5.4 2-2.6 5.1-2.6 3.4 0 5.2 2.5 0.8 1.1 1.1 2.7 0.4 1.5 0.4 3.5zm10.2-1.7q-0.1-2.1-1.3-3.6-1.3-1.7-3.7-1.7-2.3 0-3.7 1.8-0.6 0.7-1 1.6-0.3 0.9-0.4 1.9z"/><path class="a" d="m474 123.9q0 1.7 1.3 1.7 0.3 0 0.7-0.1 0.5 0 1.1 0v1.6q-0.8 0-1.3 0.1-0.5 0-0.6 0-2.9 0-2.9-3.2v-17.7h1.7z"/></svg>
